<?xml version="1.0" encoding="utf-8"?>
<!-- Generator: Adobe Illustrator 25.0.1, SVG Export Plug-In . SVG Version: 6.00 Build 0)  -->
<svg version="1.1" id="Layer_1" xmlns="http://www.w3.org/2000/svg" xmlns:xlink="http://www.w3.org/1999/xlink" x="0px" y="0px"
	 width="1080px" height="1080px" viewBox="0 0 1080 1080" style="enable-background:new 0 0 1080 1080;" xml:space="preserve">
<style type="text/css">
	.st0{fill:#7B7C7F;}
</style>
<path class="st0" d="M865.4,585c0,62.6-73.6,113.3-164.3,113.3c-42.4,0-81.1-11.1-110.2-29.3c-28.1,29.2-74.6,48.3-127.3,48.3
	c-43.9,0-83.5-13.3-111.7-34.6c-4.9,0.6-10,0.8-15,0.8c-67.7,0-122.6-50.7-122.6-113.3S269.1,457,336.8,457c1.5,0,3,0,4.5,0.1
	c17-54,80.8-94.1,156.8-94.1c84.5,0,153.7,49.5,160.7,112.5c13.5-2.5,27.6-3.8,42.3-3.8C791.8,471.7,865.4,522.4,865.4,585z"/>
</svg>
