<?xml version="1.0" encoding="utf-8"?>
<!-- Generator: Adobe Illustrator 25.0.1, SVG Export Plug-In . SVG Version: 6.00 Build 0)  -->
<svg version="1.1" id="Layer_1" xmlns="http://www.w3.org/2000/svg" xmlns:xlink="http://www.w3.org/1999/xlink" x="0px" y="0px"
	 width="651.2px" height="354.4px" viewBox="0 0 651.2 354.4" style="enable-background:new 0 0 651.2 354.4;" xml:space="preserve"
	>
<style type="text/css">
	.st0{fill:#7B7C7F;}
</style>
<path class="st0" d="M651.2,222c0,62.6-73.6,113.3-164.3,113.3c-42.4,0-81.1-11.1-110.2-29.3c-28.1,29.2-74.6,48.3-127.3,48.3
	c-43.9,0-83.5-13.3-111.7-34.6c-4.9,0.6-10,0.8-15,0.8C54.9,320.6,0,269.9,0,207.3S54.9,94,122.6,94c1.5,0,3,0,4.5,0.1
	c17-54,80.8-94.1,156.8-94.1c84.5,0,153.7,49.5,160.7,112.5c13.5-2.5,27.6-3.8,42.3-3.8C577.6,108.7,651.2,159.5,651.2,222z"/>
</svg>
