<?xml version="1.0" encoding="utf-8"?>
<!-- Generator: Adobe Illustrator 25.0.1, SVG Export Plug-In . SVG Version: 6.00 Build 0)  -->
<svg version="1.1" id="Layer_1" xmlns="http://www.w3.org/2000/svg" xmlns:xlink="http://www.w3.org/1999/xlink" x="0px" y="0px"
	 width="543.6px" height="642.1px" viewBox="0 0 543.6 642.1" style="enable-background:new 0 0 543.6 642.1;" xml:space="preserve"
	>
<style type="text/css">
	.st0{fill:#848689;}
	.st1{fill:#6D6E71;}
</style>
<g>
	<path class="st0" d="M543.6,320.2c0,58.2-15.4,112.7-42.4,159.8c-4.8-2.5-10.2-4-16-4c-18.8,0-34.1,15.3-34.1,34.1
		c0,9.7,4,18.4,10.5,24.6C402.7,600.6,317,642.1,221.7,642.1c-85.9,0-164-33.7-221.7-88.5c15.6,2.4,31.7,3.6,48,3.6
		c24.5,0,48.4-2.8,71.4-8.1c0,0.2,0,0.3,0,0.5c0,18.8,15.3,34.1,34.1,34.1s34.1-15.3,34.1-34.1c0-8-2.8-15.4-7.4-21.2
		c79.7-36.6,141.6-105.2,169.2-189.4c18.6-0.3,33.5-15.5,33.5-34.1c0-13.6-8-25.4-19.5-30.8c1.2-11.2,1.8-22.6,1.8-34.1
		c0-95.9-42.5-181.8-109.7-239.9C417.4,16.9,543.6,153.8,543.6,320.2z"/>
	<path class="st1" d="M422.6,123.1c0,15.4-12.5,27.9-27.9,27.9c-15.4,0-27.9-12.5-27.9-27.9s12.5-27.9,27.9-27.9
		C410.1,95.2,422.6,107.7,422.6,123.1z M389.4,460.1c-17.2-9.9-41.2-0.3-53.8,21.4c-12.5,21.7-8.8,47.4,8.4,57.3s41.2,0.3,53.8-21.4
		C410.3,495.6,406.6,470,389.4,460.1z M466.6,321c-27.2,0-49.3,18.6-49.3,41.5s22.1,41.5,49.3,41.5c27.2,0,49.3-18.6,49.3-41.5
		S493.8,321,466.6,321z M466.6,207.5c-15.4,0-27.9,9.8-27.9,21.9s12.5,21.9,27.9,21.9s27.9-9.8,27.9-21.9S482,207.5,466.6,207.5z
		 M231.1,516.9c-15.4,0-27.9,12.5-27.9,27.9c0,15.4,12.5,27.9,27.9,27.9s27.9-12.5,27.9-27.9C259.1,529.4,246.6,516.9,231.1,516.9z"
		/>
</g>
</svg>
