<?xml version="1.0" encoding="utf-8"?>
<!-- Generator: Adobe Illustrator 25.0.1, SVG Export Plug-In . SVG Version: 6.00 Build 0)  -->
<svg version="1.1" id="Layer_1" xmlns="http://www.w3.org/2000/svg" xmlns:xlink="http://www.w3.org/1999/xlink" x="0px" y="0px"
	 width="1080px" height="1080px" viewBox="0 0 1080 1080" style="enable-background:new 0 0 1080 1080;" xml:space="preserve">
<style type="text/css">
	.st0{fill:#F7EC13;}
</style>
<path class="st0" d="M725.2,540.1c0,62.9-31.4,118.6-79.4,152c-0.3,0.2-0.6,0.4-0.9,0.6c-0.8,0.6-1.6,1.1-2.5,1.7
	c-0.6,0.4-1.2,0.8-1.8,1.2c-0.5,0.4-1.1,0.7-1.6,1c-0.9,0.5-1.7,1.1-2.6,1.6c-0.3,0.2-0.6,0.4-0.9,0.5c-1.1,0.7-2.2,1.3-3.3,1.9
	c-0.1,0-0.2,0.1-0.3,0.1c-70.8,40.7-162.8,30.8-223.4-29.7c-72.4-72.4-72.4-189.7,0-262.1c12.9-12.9,27.3-23.6,42.6-31.9
	c0.2-0.1,0.4-0.2,0.6-0.3c1-0.5,1.9-1,2.9-1.5c0.6-0.3,1.2-0.6,1.8-0.9c0.6-0.3,1.2-0.6,1.7-0.9c1-0.5,2-1,3.1-1.5
	c0.2-0.1,0.3-0.1,0.5-0.2c23.7-11,50.2-17.2,78-17.2C642.2,354.8,725.2,437.8,725.2,540.1z M495.5,354.4c14.3-3.6,29.1-5.5,44-5.5
	c15.1,0,30.1,1.9,44.6,5.6c0.6,0.2,1.2,0.2,1.8,0.2c2.2,0,4.4-1,5.7-2.8c1.8-2.3,2-5.4,0.5-8L546,264.1c-1.3-2.2-3.7-3.6-6.2-3.6
	c-2.6,0-5,1.4-6.2,3.6l-46,79.7c-1.4,2.5-1.3,5.6,0.5,7.9C489.8,354.1,492.7,355.1,495.5,354.4z M815.8,533.8l-79.7-46
	c-2.5-1.4-5.6-1.3-7.9,0.5c-2.3,1.7-3.3,4.7-2.6,7.5c3.6,14.3,5.5,29.1,5.5,44c0,15.1-1.9,30.1-5.6,44.6c-0.2,0.6-0.2,1.2-0.2,1.8
	c0,2.2,1,4.4,2.8,5.7c2.3,1.8,5.4,2,8,0.5l79.9-46.1c2.2-1.3,3.6-3.7,3.6-6.2S818.1,535.1,815.8,533.8z M584.1,725.8
	c-14.3,3.6-29.1,5.5-44,5.5c-15.1,0-30.1-1.9-44.6-5.6c-0.6-0.2-1.2-0.2-1.8-0.2c-2.2,0-4.4,1-5.7,2.8c-1.8,2.3-2,5.4-0.5,8
	l46.1,79.9c1.3,2.2,3.7,3.6,6.2,3.6s5-1.4,6.2-3.6l46-79.7c1.4-2.5,1.3-5.6-0.5-7.9C589.9,726.1,586.9,725.1,584.1,725.8z
	 M351.5,592.1c1.8-1.4,2.8-3.5,2.8-5.7c0-0.6-0.1-1.2-0.2-1.8c-3.7-14.5-5.6-29.5-5.6-44.6c0-14.9,1.8-29.7,5.5-44
	c0.7-2.8-0.3-5.8-2.6-7.5c-2.3-1.7-5.4-1.9-7.9-0.5l-79.7,46c-2.2,1.3-3.6,3.7-3.6,6.2s1.4,5,3.6,6.2l79.9,46.1
	C346.1,594,349.2,593.8,351.5,592.1z M363.9,438.4c0.7,2.8,3.1,4.9,6,5.3c2.9,0.4,5.7-1,7.2-3.5c7.6-12.7,16.7-24.5,27.2-35
	c10.7-10.7,22.6-19.9,35.5-27.5c0.5-0.3,1-0.7,1.4-1.1c1.6-1.6,2.4-3.8,2-6.1c-0.4-2.9-2.5-5.2-5.3-6l-89.1-23.9
	c-2.5-0.7-5.1,0-7,1.9c-1.8,1.8-2.5,4.5-1.9,7L363.9,438.4z M639.6,377.6c12.7,7.6,24.5,16.7,35,27.2c10.7,10.7,19.9,22.6,27.5,35.5
	c0.3,0.5,0.7,1,1.1,1.4c1.6,1.6,3.8,2.4,6.1,2c2.9-0.4,5.2-2.5,6-5.3l23.9-89.1c0.7-2.5,0-5.1-1.9-7c-1.8-1.8-4.5-2.5-7-1.9
	l-88.9,23.8c-2.8,0.7-4.9,3.1-5.3,6C635.8,373.3,637.1,376.1,639.6,377.6z M715.4,642c-0.7-2.8-3.1-4.9-6-5.3
	c-2.9-0.4-5.7,1-7.2,3.5c-7.6,12.7-16.7,24.5-27.2,35c-10.7,10.7-22.6,19.9-35.5,27.5c-0.5,0.3-1,0.7-1.4,1.1
	c-1.6,1.6-2.4,3.8-2,6.1c0.4,2.9,2.5,5.2,5.3,6l89.1,23.9c2.5,0.7,5.1,0,7-1.9c1.8-1.8,2.5-4.5,1.9-7L715.4,642z M439.7,703
	c-12.9-7.6-24.8-16.9-35.5-27.5c-10.5-10.5-19.7-22.3-27.2-35c-1.5-2.5-4.3-3.8-7.2-3.5c-2.9,0.4-5.2,2.5-6,5.3L340,731.2
	c-0.7,2.5,0,5.1,1.9,7c1.8,1.8,4.5,2.5,7,1.9l89.1-23.9c2.8-0.8,4.9-3.1,5.3-6c0.3-2.3-0.5-4.5-2-6.1
	C440.8,703.6,440.3,703.3,439.7,703z"/>
</svg>
